<svg xmlns="http://www.w3.org/2000/svg" xmlns:xlink="http://www.w3.org/1999/xlink" width="37.65" height="37.65" viewBox="0 0 37.65 37.65"><defs><style>.a{fill:none;}.b{clip-path:url(#a);}.c{fill:#f7f7f7;}</style><clipPath id="a"><rect class="a" width="37.65" height="37.65" transform="translate(0 0)"/></clipPath></defs><g transform="translate(0 0)"><g class="b"><path class="c" d="M29.55,6.61a1.48,1.48,0,0,0-1.44,1.47,1.455,1.455,0,0,0,1.45,1.47h.01a1.521,1.521,0,0,0,1.48-1.47,1.505,1.505,0,0,0-1.5-1.47m-4.46,5.85a8.839,8.839,0,0,0-6.24-2.55h-.07a8.9,8.9,0,0,0,.04,17.79h.11a8.9,8.9,0,0,0,6.16-15.24M18.84,26.4h-.03a7.6,7.6,0,0,1,.02-15.19h.01a7.6,7.6,0,0,1,0,15.19M29.55,6.61a1.48,1.48,0,0,0-1.44,1.47,1.455,1.455,0,0,0,1.45,1.47h.01a1.521,1.521,0,0,0,1.48-1.47,1.505,1.505,0,0,0-1.5-1.47m-4.46,5.85a8.839,8.839,0,0,0-6.24-2.55h-.07a8.9,8.9,0,0,0,.04,17.79h.11a8.9,8.9,0,0,0,6.16-15.24M18.84,26.4h-.03a7.6,7.6,0,0,1,.02-15.19h.01a7.6,7.6,0,0,1,0,15.19m6.25-13.94a8.839,8.839,0,0,0-6.24-2.55h-.07a8.9,8.9,0,0,0,.04,17.79h.11a8.9,8.9,0,0,0,6.16-15.24M18.84,26.4h-.03a7.6,7.6,0,0,1,.02-15.19h.01a7.6,7.6,0,0,1,0,15.19M29.55,6.61a1.48,1.48,0,0,0-1.44,1.47,1.455,1.455,0,0,0,1.45,1.47h.01a1.521,1.521,0,0,0,1.48-1.47,1.505,1.505,0,0,0-1.5-1.47m0,0a1.48,1.48,0,0,0-1.44,1.47,1.455,1.455,0,0,0,1.45,1.47h.01a1.521,1.521,0,0,0,1.48-1.47,1.505,1.505,0,0,0-1.5-1.47m-4.46,5.85a8.839,8.839,0,0,0-6.24-2.55h-.07a8.9,8.9,0,0,0,.04,17.79h.11a8.9,8.9,0,0,0,6.16-15.24M18.84,26.4h-.03a7.6,7.6,0,0,1,.02-15.19h.01a7.6,7.6,0,0,1,0,15.19m6.25-13.94a8.839,8.839,0,0,0-6.24-2.55h-.07a8.9,8.9,0,0,0,.04,17.79h.11a8.9,8.9,0,0,0,6.16-15.24M18.84,26.4h-.03a7.6,7.6,0,0,1,.02-15.19h.01a7.6,7.6,0,0,1,0,15.19M29.55,6.61a1.48,1.48,0,0,0-1.44,1.47,1.455,1.455,0,0,0,1.45,1.47h.01a1.521,1.521,0,0,0,1.48-1.47,1.505,1.505,0,0,0-1.5-1.47m0,0a1.48,1.48,0,0,0-1.44,1.47,1.455,1.455,0,0,0,1.45,1.47h.01a1.521,1.521,0,0,0,1.48-1.47,1.505,1.505,0,0,0-1.5-1.47m-4.46,5.85a8.839,8.839,0,0,0-6.24-2.55h-.07a8.9,8.9,0,0,0,.04,17.79h.11a8.9,8.9,0,0,0,6.16-15.24M18.84,26.4h-.03a7.6,7.6,0,0,1,.02-15.19h.01a7.6,7.6,0,0,1,0,15.19m6.25-13.94a8.839,8.839,0,0,0-6.24-2.55h-.07a8.9,8.9,0,0,0,.04,17.79h.11a8.9,8.9,0,0,0,6.16-15.24M18.84,26.4h-.03a7.6,7.6,0,0,1,.02-15.19h.01a7.6,7.6,0,0,1,0,15.19M29.55,6.61a1.48,1.48,0,0,0-1.44,1.47,1.455,1.455,0,0,0,1.45,1.47h.01a1.521,1.521,0,0,0,1.48-1.47,1.505,1.505,0,0,0-1.5-1.47m0,0a1.48,1.48,0,0,0-1.44,1.47,1.455,1.455,0,0,0,1.45,1.47h.01a1.521,1.521,0,0,0,1.48-1.47,1.505,1.505,0,0,0-1.5-1.47m-4.46,5.85a8.839,8.839,0,0,0-6.24-2.55h-.07a8.9,8.9,0,0,0,.04,17.79h.11a8.9,8.9,0,0,0,6.16-15.24M18.84,26.4h-.03a7.6,7.6,0,0,1,.02-15.19h.01a7.6,7.6,0,0,1,0,15.19m6.25-13.94a8.839,8.839,0,0,0-6.24-2.55h-.07a8.9,8.9,0,0,0,.04,17.79h.11a8.9,8.9,0,0,0,6.16-15.24M18.84,26.4h-.03a7.6,7.6,0,0,1,.02-15.19h.01a7.6,7.6,0,0,1,0,15.19M29.55,6.61a1.48,1.48,0,0,0-1.44,1.47,1.455,1.455,0,0,0,1.45,1.47h.01a1.521,1.521,0,0,0,1.48-1.47,1.505,1.505,0,0,0-1.5-1.47m0,0a1.48,1.48,0,0,0-1.44,1.47,1.455,1.455,0,0,0,1.45,1.47h.01a1.521,1.521,0,0,0,1.48-1.47,1.505,1.505,0,0,0-1.5-1.47m-4.46,5.85a8.839,8.839,0,0,0-6.24-2.55h-.07a8.9,8.9,0,0,0,.04,17.79h.11a8.9,8.9,0,0,0,6.16-15.24M18.84,26.4h-.03a7.6,7.6,0,0,1,.02-15.19h.01a7.6,7.6,0,0,1,0,15.19m6.25-13.94a8.839,8.839,0,0,0-6.24-2.55h-.07a8.9,8.9,0,0,0,.04,17.79h.11a8.9,8.9,0,0,0,6.16-15.24M18.84,26.4h-.03a7.6,7.6,0,0,1,.02-15.19h.01a7.6,7.6,0,0,1,0,15.19M29.55,6.61a1.48,1.48,0,0,0-1.44,1.47,1.455,1.455,0,0,0,1.45,1.47h.01a1.521,1.521,0,0,0,1.48-1.47,1.505,1.505,0,0,0-1.5-1.47m0,0a1.48,1.48,0,0,0-1.44,1.47,1.455,1.455,0,0,0,1.45,1.47h.01a1.521,1.521,0,0,0,1.48-1.47,1.505,1.505,0,0,0-1.5-1.47m-10.7,3.3h-.07a8.9,8.9,0,0,0,.04,17.79h.11a8.9,8.9,0,0,0-.08-17.79M18.84,26.4h-.03a7.6,7.6,0,0,1,.02-15.19h.01a7.6,7.6,0,0,1,0,15.19M37.56,7.33a1.553,1.553,0,0,0-.04-.37,8.715,8.715,0,0,0-1.29-3.02A9.06,9.06,0,0,0,32.06.55,8.224,8.224,0,0,0,29.61,0L8.05.01a4.947,4.947,0,0,1-.72.08,2.733,2.733,0,0,0-.49.06A8.767,8.767,0,0,0,2.4,2.74,8.248,8.248,0,0,0,0,8.51q0,10.3.01,20.61a7.306,7.306,0,0,0,.14,1.56,8.746,8.746,0,0,0,2.62,4.56,8.175,8.175,0,0,0,5.76,2.41H29.14a7.686,7.686,0,0,0,1.6-.16,8.651,8.651,0,0,0,2.99-1.29,9.038,9.038,0,0,0,3.39-4.19,8.555,8.555,0,0,0,.53-2.3V8.03a3.947,3.947,0,0,1-.09-.7M36.34,28.65a7.634,7.634,0,0,1-5.15,7.26,8,8,0,0,1-2.61.4H21.87c-1.48.01-2.95.01-4.43.01-2.78,0-5.56-.01-8.34-.01a7.4,7.4,0,0,1-7.09-4.49,7.26,7.26,0,0,1-.67-3.23V26.53c.01-5.84.02-11.68,0-17.52a7.658,7.658,0,0,1,5.15-7.3h.02a8.294,8.294,0,0,1,2.66-.4h9.67c3.24.01,6.47.01,9.71,0a7.436,7.436,0,0,1,6.39,3.22,7.368,7.368,0,0,1,1.4,4.46q-.015,9.81,0,19.66M29.55,6.61a1.48,1.48,0,0,0-1.44,1.47,1.455,1.455,0,0,0,1.45,1.47h.01a1.521,1.521,0,0,0,1.48-1.47,1.505,1.505,0,0,0-1.5-1.47m-10.7,3.3h-.07a8.9,8.9,0,0,0,.04,17.79h.11a8.9,8.9,0,0,0-.08-17.79M18.84,26.4h-.03a7.6,7.6,0,0,1,.02-15.19h.01a7.6,7.6,0,0,1,0,15.19m6.25-13.94a8.839,8.839,0,0,0-6.24-2.55h-.07a8.9,8.9,0,0,0,.04,17.79h.11a8.9,8.9,0,0,0,6.16-15.24M18.84,26.4h-.03a7.6,7.6,0,0,1,.02-15.19h.01a7.6,7.6,0,0,1,0,15.19M29.55,6.61a1.48,1.48,0,0,0-1.44,1.47,1.455,1.455,0,0,0,1.45,1.47h.01a1.521,1.521,0,0,0,1.48-1.47,1.505,1.505,0,0,0-1.5-1.47m0,0a1.48,1.48,0,0,0-1.44,1.47,1.455,1.455,0,0,0,1.45,1.47h.01a1.521,1.521,0,0,0,1.48-1.47,1.505,1.505,0,0,0-1.5-1.47m-4.46,5.85a8.839,8.839,0,0,0-6.24-2.55h-.07a8.9,8.9,0,0,0,.04,17.79h.11a8.9,8.9,0,0,0,6.16-15.24M18.84,26.4h-.03a7.6,7.6,0,0,1,.02-15.19h.01a7.6,7.6,0,0,1,0,15.19m6.25-13.94a8.839,8.839,0,0,0-6.24-2.55h-.07a8.9,8.9,0,0,0,.04,17.79h.11a8.9,8.9,0,0,0,6.16-15.24M18.84,26.4h-.03a7.6,7.6,0,0,1,.02-15.19h.01a7.6,7.6,0,0,1,0,15.19M29.55,6.61a1.48,1.48,0,0,0-1.44,1.47,1.455,1.455,0,0,0,1.45,1.47h.01a1.521,1.521,0,0,0,1.48-1.47,1.505,1.505,0,0,0-1.5-1.47m0,0a1.48,1.48,0,0,0-1.44,1.47,1.455,1.455,0,0,0,1.45,1.47h.01a1.521,1.521,0,0,0,1.48-1.47,1.505,1.505,0,0,0-1.5-1.47m-4.46,5.85a8.839,8.839,0,0,0-6.24-2.55h-.07a8.9,8.9,0,0,0,.04,17.79h.11a8.9,8.9,0,0,0,6.16-15.24M18.84,26.4h-.03a7.6,7.6,0,0,1,.02-15.19h.01a7.6,7.6,0,0,1,0,15.19m6.25-13.94a8.839,8.839,0,0,0-6.24-2.55h-.07a8.9,8.9,0,0,0,.04,17.79h.11a8.9,8.9,0,0,0,6.16-15.24M18.84,26.4h-.03a7.6,7.6,0,0,1,.02-15.19h.01a7.6,7.6,0,0,1,0,15.19M29.55,6.61a1.48,1.48,0,0,0-1.44,1.47,1.455,1.455,0,0,0,1.45,1.47h.01a1.521,1.521,0,0,0,1.48-1.47,1.505,1.505,0,0,0-1.5-1.47m0,0a1.48,1.48,0,0,0-1.44,1.47,1.455,1.455,0,0,0,1.45,1.47h.01a1.521,1.521,0,0,0,1.48-1.47,1.505,1.505,0,0,0-1.5-1.47m-4.46,5.85a8.839,8.839,0,0,0-6.24-2.55h-.07a8.9,8.9,0,0,0,.04,17.79h.11a8.9,8.9,0,0,0,6.16-15.24M18.84,26.4h-.03a7.6,7.6,0,0,1,.02-15.19h.01a7.6,7.6,0,0,1,0,15.19m6.25-13.94a8.839,8.839,0,0,0-6.24-2.55h-.07a8.9,8.9,0,0,0,.04,17.79h.11a8.9,8.9,0,0,0,6.16-15.24M18.84,26.4h-.03a7.6,7.6,0,0,1,.02-15.19h.01a7.6,7.6,0,0,1,0,15.19M29.55,6.61a1.48,1.48,0,0,0-1.44,1.47,1.455,1.455,0,0,0,1.45,1.47h.01a1.521,1.521,0,0,0,1.48-1.47,1.505,1.505,0,0,0-1.5-1.47m0,0a1.48,1.48,0,0,0-1.44,1.47,1.455,1.455,0,0,0,1.45,1.47h.01a1.521,1.521,0,0,0,1.48-1.47,1.505,1.505,0,0,0-1.5-1.47m-4.46,5.85a8.839,8.839,0,0,0-6.24-2.55h-.07a8.9,8.9,0,0,0,.04,17.79h.11a8.9,8.9,0,0,0,6.16-15.24M18.84,26.4h-.03a7.6,7.6,0,0,1,.02-15.19h.01a7.6,7.6,0,0,1,0,15.19m6.25-13.94a8.839,8.839,0,0,0-6.24-2.55h-.07a8.9,8.9,0,0,0,.04,17.79h.11a8.9,8.9,0,0,0,6.16-15.24M18.84,26.4h-.03a7.6,7.6,0,0,1,.02-15.19h.01a7.6,7.6,0,0,1,0,15.19M29.55,6.61a1.48,1.48,0,0,0-1.44,1.47,1.455,1.455,0,0,0,1.45,1.47h.01a1.521,1.521,0,0,0,1.48-1.47,1.505,1.505,0,0,0-1.5-1.47m0,0a1.48,1.48,0,0,0-1.44,1.47,1.455,1.455,0,0,0,1.45,1.47h.01a1.521,1.521,0,0,0,1.48-1.47,1.505,1.505,0,0,0-1.5-1.47m-4.46,5.85a8.839,8.839,0,0,0-6.24-2.55h-.07a8.9,8.9,0,0,0,.04,17.79h.11a8.9,8.9,0,0,0,6.16-15.24M18.84,26.4h-.03a7.6,7.6,0,0,1,.02-15.19h.01a7.6,7.6,0,0,1,0,15.19"/></g></g></svg>