<svg xmlns="http://www.w3.org/2000/svg" xmlns:xlink="http://www.w3.org/1999/xlink" width="39.032" height="33.415" viewBox="0 0 39.032 33.415"><defs><style>.a{fill:none;}.b{clip-path:url(#a);}.e{fill:#f7f7f7;}</style><clipPath id="a"><rect class="a" width="39.032" height="33.415" transform="translate(0 0)"/></clipPath></defs><g class="b"><path class="c" d="M39.032,1.128l-.47.17a1.981,1.981,0,0,0-2.53-1.18l-.09.03Q20.567,5.263,5.272,10.278l-3.81,1.26A1.886,1.886,0,0,0,0,13.448a1.86,1.86,0,0,0,1.23,1.71c2.75,1.2,5.47,2.4,8.19,3.59a1.046,1.046,0,0,1,.7.81c.66,3.14,1.34,6.29,2.02,9.43l.15.7c.12.59.25,1.18.4,1.76a.683.683,0,0,0,.76.59.642.642,0,0,0,.31-.15c.14-.09.22-.16.3-.22l.1-.07c2.02-1.52,4.04-3.03,6.06-4.55a.982.982,0,0,1,.57-.22.885.885,0,0,1,.58.24c.4.35.8.68,1.21,1.01l2.03,1.66c1.3,1.06,2.6,2.13,3.9,3.18a1.9,1.9,0,0,0,2.68-.12,1.832,1.832,0,0,0,.45-.9c.17-.67.32-1.32.47-1.96l.17-.73q2.8-11.94,5.62-23.88l.19-.86c.17-.73.34-1.5.56-2.24v-.54a.975.975,0,0,1-.1-.37Zm-24.95,25.24a.75.75,0,0,1-.41.53l-.56.26-1.23-5.7c-.14-.66-.28-1.32-.43-1.98a.75.75,0,0,1,.39-.91q5.265-2.91,10.53-5.84a.565.565,0,0,1,.72.09l.19.2-.07.27a.921.921,0,0,1-.33.48c-2.39,2.5-4.74,4.96-7.09,7.41a1.908,1.908,0,0,0-.48.84c-.28,1.04-.58,2.08-.88,3.11Zm1.4,2.57-.59-.58,1.53-5.33,3.33,2.72Zm14.65,3.6-12.9-10.56.09-.32a1.018,1.018,0,0,1,.33-.49l11.71-12.25a.993.993,0,0,0,.4-.74.688.688,0,0,0-.2-.43.759.759,0,0,0-.45-.18c-.07.01-.13.02-.19.03a3.389,3.389,0,0,0-.39.18q-8.745,4.86-17.46,9.71a1.048,1.048,0,0,1-1.05.08c-2.06-.92-4.14-1.83-6.22-2.73l-1.9-.83a.888.888,0,0,1-.5-.39l-.34-.55,36.48-12.02Z"/></g></svg>