<svg class="twitter" xmlns="http://www.w3.org/2000/svg" width="38.453" height="31.872" viewBox="0 0 38.453 31.872"><defs><style>.a{fill:#f7f7f7;}</style></defs><path class="a" d="M-1451.719,702.066a4.049,4.049,0,0,1-1.221.465c-.018.009-.046.009-.073.018a.242.242,0,0,0,.046-.055,6.29,6.29,0,0,0,.756-.975,3.665,3.665,0,0,0,.683-1.914.707.707,0,0,0-1.048-.656,1.27,1.27,0,0,0-.255.155,7.909,7.909,0,0,1-3.718,1.367,1,1,0,0,1-.8-.264,7.808,7.808,0,0,0-6.934-1.786,8.234,8.234,0,0,0-6.5,8.219c0,.346.036.693.055,1.039a14.585,14.585,0,0,1-4.31-.747,22.642,22.642,0,0,1-6.816-3.936,28.053,28.053,0,0,1-3.016-2.87.734.734,0,0,0-1.276.064,8.514,8.514,0,0,0-1.021,2.807,8.092,8.092,0,0,0,.829,5.012c.228.456.492.884.738,1.33a3.043,3.043,0,0,1-.419-.219.739.739,0,0,0-1.194.693c0,.328.018.647.046.975a7.773,7.773,0,0,0,2.989,5.622c.1.082.246.128.282.283-.538.109-.82.474-.674.929a7.748,7.748,0,0,0,3.663,4.693,9.175,9.175,0,0,0,2.087.838c-.027.118-.109.137-.164.182a10.715,10.715,0,0,1-5.422,1.877,17.159,17.159,0,0,1-3.554-.064.7.7,0,0,0-.875.465.748.748,0,0,0,.355.9,16.737,16.737,0,0,0,3.2,1.859,20.8,20.8,0,0,0,6.706,1.64,23.285,23.285,0,0,0,6.315-.292,23.85,23.85,0,0,0,5.859-2.014,20.24,20.24,0,0,0,6.962-5.422,23.038,23.038,0,0,0,5.094-13.75,2.573,2.573,0,0,1,1.039-2.26l.055-.055a14.181,14.181,0,0,0,2.825-3.472v-.374C-1450.789,701.775-1451.108,701.693-1451.719,702.066Zm-4.018,5.076a22.216,22.216,0,0,1-2.05,9.932,18.821,18.821,0,0,1-7.891,8.629,23.191,23.191,0,0,1-6.615,2.542,20.939,20.939,0,0,1-5.8.319,19.368,19.368,0,0,1-5.914-1.248,8.508,8.508,0,0,1-1.13-.538c.583-.064,1.157-.128,1.731-.21a11.077,11.077,0,0,0,6.688-3.3.754.754,0,0,0,.191-.984.837.837,0,0,0-.738-.355,6.471,6.471,0,0,1-4.21-1.832,5.848,5.848,0,0,1-1.257-1.786,10.259,10.259,0,0,0,1.312-.073,5.946,5.946,0,0,0,.693-.182c.456-.155.647-.383.647-.765s-.21-.583-.683-.72a7.314,7.314,0,0,1-2.5-1.248,6.146,6.146,0,0,1-2.333-3.855c-.027-.146-.073-.282-.109-.437.137-.082.255.027.374.073a4.135,4.135,0,0,0,1.731.264.754.754,0,0,0,.756-.492.782.782,0,0,0-.273-.875,8.807,8.807,0,0,1-2.469-4,6.354,6.354,0,0,1,.255-4.164,3.432,3.432,0,0,1,.656.6,26.343,26.343,0,0,0,6.825,4.911,16.348,16.348,0,0,0,7.727,1.786c.848-.018,1.112-.328.948-1.148a7.457,7.457,0,0,1-.128-2.16,6.778,6.778,0,0,1,6.679-6.133,6.418,6.418,0,0,1,4.52,1.8,1.479,1.479,0,0,0,1.212.456,9.1,9.1,0,0,0,2.46-.456c.164-.055.328-.1.556-.173a11.241,11.241,0,0,1-1.631,1.6,1.706,1.706,0,0,0-.428.419.711.711,0,0,0,.647,1.075,9.853,9.853,0,0,0,1.558-.2.8.8,0,0,1,.419-.009c-.355.355-.674.693-1.011,1.02s-.683.665-1.039.984A1.118,1.118,0,0,0-1455.737,707.142Z" transform="translate(1488.878 -698.232)"/></svg>