<svg xmlns="http://www.w3.org/2000/svg" width="205.842" height="339.276" viewBox="0 0 205.842 339.276"><g transform="translate(-5391.941 -2341.436)" opacity="0.37"><path d="M5732.519,3511.5h-18.97a1.844,1.844,0,0,0-1.8,2.253,76.9,76.9,0,0,0,19.437,36.1,1.845,1.845,0,0,0,3.177-1.276v-35.235A1.844,1.844,0,0,0,5732.519,3511.5Zm-1.844,32.263a73.188,73.188,0,0,1-14.777-28.575h14.777Z" transform="translate(-245.997 -902.195)" fill="#f7f7f7" stroke="#0b0b0b" stroke-width="2"/><path d="M6021.147,3271.116a1.845,1.845,0,0,0,1.844,1.845h37.529a1.844,1.844,0,0,0,1.844-1.844v-50.038a1.844,1.844,0,0,0-1.844-1.844h-9.393a1.844,1.844,0,0,0-1.786,1.382,31.778,31.778,0,0,1-2.2,5.955,31.364,31.364,0,0,1-21.4,16.914l-6.444,1.45a1.844,1.844,0,0,0-1.373,2.29A89.616,89.616,0,0,1,6021.147,3271.116Zm5.4-24.032a35.032,35.032,0,0,0,23.9-18.894,35.514,35.514,0,0,0,2.071-5.267h6.152v46.35h-33.857a93.308,93.308,0,0,0-2.846-21.159Z" transform="translate(-482.262 -676.646)" fill="#f7f7f7" stroke="#0b0b0b" stroke-width="2"/><path d="M6095.862,2729.886a1.844,1.844,0,0,0,1.785,1.383h9.4a1.844,1.844,0,0,0,1.845-1.844V2605.606a1.845,1.845,0,0,0-3.246-1.2,89.364,89.364,0,0,0-20.919,47.748l-6.569,55.418a1.845,1.845,0,0,0,1.022,1.875A31.494,31.494,0,0,1,6095.862,2729.886Zm-7.472-77.3a85.662,85.662,0,0,1,16.813-41.755v116.747h-6.158a35.163,35.163,0,0,0-17.072-20.847Z" transform="translate(-528.788 -201.671)" fill="#f7f7f7" stroke="#0b0b0b" stroke-width="2"/><path d="M5394.785,2613H5449a93.6,93.6,0,0,0,33.332,54.6,1.9,1.9,0,0,0,.183.129,31.618,31.618,0,0,1,10.747,11.065,1.845,1.845,0,0,0,3.194,0,31.61,31.61,0,0,1,10.747-11.065,1.892,1.892,0,0,0,.183-.129,93.591,93.591,0,0,0,33.332-54.6h54.217a1.845,1.845,0,0,0,1.845-1.844V2369.3a1.844,1.844,0,0,0-2.728-1.619,106.5,106.5,0,0,0-54.69,80.923l-8.36,71.016a1.844,1.844,0,0,0,2.233,2.016l.063-.014a14.835,14.835,0,0,1,6.515,28.946l-7.328,1.649c-.833-1.644-1.707-3.255-2.609-4.805a171.534,171.534,0,0,1-23.191-92.44l2.668-75.492a51.832,51.832,0,0,0-13.116-36.422,1.844,1.844,0,0,0-2.757,0,51.829,51.829,0,0,0-13.116,36.423l2.668,75.492a171.53,171.53,0,0,1-23.192,92.44c-.9,1.551-1.777,3.162-2.609,4.806l-7.328-1.649a14.835,14.835,0,1,1,6.537-28.941l.039.009a1.845,1.845,0,0,0,2.236-2.015l-8.36-71.016a106.5,106.5,0,0,0-54.69-80.923,1.844,1.844,0,0,0-2.728,1.619v241.851A1.844,1.844,0,0,0,5394.785,2613Zm1.844-240.534a102.818,102.818,0,0,1,50.065,76.574l8.076,68.6a18.524,18.524,0,0,0-5.674,36.527l8.74,1.967a1.846,1.846,0,0,0,2.063-.991c.982-2.016,2.037-3.993,3.132-5.876a175.216,175.216,0,0,0,23.689-94.425l-2.668-75.492a48.142,48.142,0,0,1,10.809-32.222,48.138,48.138,0,0,1,10.809,32.222L5503,2454.839a175.207,175.207,0,0,0,23.689,94.425c1.095,1.882,2.148,3.859,3.132,5.876a1.843,1.843,0,0,0,2.063.991l8.741-1.967a18.524,18.524,0,0,0-5.675-36.527l8.076-68.6a102.822,102.822,0,0,1,50.065-76.574v236.846h-53.9a1.843,1.843,0,0,0-1.813,1.509,89.906,89.906,0,0,1-32.213,53.831,35.334,35.334,0,0,0-10.311,9.788,35.32,35.32,0,0,0-10.311-9.788,89.906,89.906,0,0,1-32.212-53.831,1.845,1.845,0,0,0-1.814-1.509h-53.9Z" fill="#f7f7f7" stroke="#0b0b0b" stroke-width="2"/><path d="M5705.314,3372.09h20.85a1.844,1.844,0,0,0,1.845-1.844,22.694,22.694,0,0,0-17.712-22.14l-1.667-.375a1.845,1.845,0,0,0-2.177,1.291,76.785,76.785,0,0,0-2.982,21.225A1.844,1.844,0,0,0,5705.314,3372.09Zm4.223-20.375a18.889,18.889,0,0,1,14.7,16.686h-17.051A73.058,73.058,0,0,1,5709.538,3351.715Z" transform="translate(-239.643 -775.775)" fill="#f7f7f7" stroke="#0b0b0b" stroke-width="2"/><path d="M5745.956,3125.115a35.415,35.415,0,0,1,18.833,12.122,1.844,1.844,0,0,0,2.869,0,35.413,35.413,0,0,1,18.834-12.122,1.844,1.844,0,0,0,1.152-2.679c-.278-.5-.554-.988-.819-1.445A188.522,188.522,0,0,1,5768,3076.169a1.844,1.844,0,0,0-3.556,0,188.512,188.512,0,0,1-18.823,44.822c-.266.457-.542.944-.819,1.445a1.844,1.844,0,0,0,1.153,2.679Zm20.268-41.893a192.264,192.264,0,0,0,17.045,38.989,38.982,38.982,0,0,0-17.045,11.029,38.986,38.986,0,0,0-17.045-11.029A192.287,192.287,0,0,0,5766.224,3083.222Z" transform="translate(-271.362 -565.192)" fill="#f7f7f7" stroke="#0b0b0b" stroke-width="2"/><path d="M5510.45,3247.226a1.844,1.844,0,0,0-1.373-2.29l-6.444-1.45a31.364,31.364,0,0,1-21.4-16.914,31.744,31.744,0,0,1-2.2-5.955,1.845,1.845,0,0,0-1.786-1.382h-9.392a1.844,1.844,0,0,0-1.844,1.844v50.038a1.844,1.844,0,0,0,1.844,1.844h37.529a1.843,1.843,0,0,0,1.843-1.845A89.638,89.638,0,0,1,5510.45,3247.226Zm-6.9,22.048H5469.7v-46.35h6.151a35.264,35.264,0,0,0,25.975,24.16l4.576,1.03A93.336,93.336,0,0,0,5503.554,3269.273Z" transform="translate(-56.388 -676.646)" fill="#f7f7f7" stroke="#0b0b0b" stroke-width="2"/><path d="M5467.853,2731.269h9.4a1.843,1.843,0,0,0,1.785-1.383,31.5,31.5,0,0,1,16.681-20.439,1.845,1.845,0,0,0,1.022-1.874l-6.569-55.419h0a89.362,89.362,0,0,0-20.919-47.748,1.844,1.844,0,0,0-3.245,1.2v123.819A1.844,1.844,0,0,0,5467.853,2731.269Zm1.844-120.435a85.649,85.649,0,0,1,16.813,41.755l6.418,54.145a35.164,35.164,0,0,0-17.072,20.847H5469.7Z" transform="translate(-56.388 -201.671)" fill="#f7f7f7" stroke="#0b0b0b" stroke-width="2"/><path d="M5872.847,3356.07a22.779,22.779,0,0,0-4.973,14.176,1.844,1.844,0,0,0,1.844,1.844h20.85a1.844,1.844,0,0,0,1.845-1.844,76.8,76.8,0,0,0-2.982-21.225,1.846,1.846,0,0,0-2.178-1.291l-1.667.375A22.774,22.774,0,0,0,5872.847,3356.07Zm13.5-4.354a73.08,73.08,0,0,1,2.356,16.686h-17.052A18.889,18.889,0,0,1,5886.345,3351.716Z" transform="translate(-366.517 -775.775)" fill="#f7f7f7" stroke="#0b0b0b" stroke-width="2"/><path d="M5888.689,3511.5h-18.971a1.844,1.844,0,0,0-1.844,1.844v35.235a1.844,1.844,0,0,0,3.176,1.276,76.883,76.883,0,0,0,19.437-36.1,1.844,1.844,0,0,0-1.8-2.253Zm-17.126,32.263V3515.19h14.777A73.194,73.194,0,0,1,5871.563,3543.765Z" transform="translate(-366.517 -902.195)" fill="#f7f7f7" stroke="#0b0b0b" stroke-width="2"/></g></svg>