<svg xmlns="http://www.w3.org/2000/svg" width="128.241" height="53.148" viewBox="0 0 128.241 53.148"><g transform="translate(-418.509 -693.049)"><path d="M465.8,720.847l-10.263-15.111-17.667,21.009Z" fill="#005bc5"/><path d="M437.875,727.6l32.424-6.736-2.61,25.333Z" fill="#fcd600"/><path d="M467.244,720.593l23.072-27.544-21.206,47.458,2.145-20.669Z" fill="#fcd600"/><path d="M444.625,717.361,431.08,699.605l-5.618.044L439.7,737.237l5.827-3.706-9.13-6.124Z" fill="#005bc5"/><path d="M424.949,700.976l-6.441,10.44,8.92-3.941Z" fill="#005bc5"/><path d="M506.112,700.015a4.383,4.383,0,0,1-1.414-.227,2.9,2.9,0,0,1-1.064-.586l.342-.722a3.007,3.007,0,0,0,.943.536,3.4,3.4,0,0,0,1.193.213,2.685,2.685,0,0,0,.916-.13,1.081,1.081,0,0,0,.517-.355.843.843,0,0,0,.167-.514.7.7,0,0,0-.218-.536,1.6,1.6,0,0,0-.564-.328,6.167,6.167,0,0,0-.763-.217c-.277-.062-.555-.135-.837-.218a3.675,3.675,0,0,1-.766-.319,1.554,1.554,0,0,1-.56-.523,1.523,1.523,0,0,1-.213-.845,1.7,1.7,0,0,1,.264-.92,1.822,1.822,0,0,1,.813-.675,3.342,3.342,0,0,1,1.4-.255,4.354,4.354,0,0,1,1.119.148,3.16,3.16,0,0,1,.962.425l-.306.74a2.962,2.962,0,0,0-.878-.4,3.442,3.442,0,0,0-.9-.125,2.485,2.485,0,0,0-.9.139,1.091,1.091,0,0,0-.512.37.874.874,0,0,0-.162.517.713.713,0,0,0,.216.546,1.561,1.561,0,0,0,.565.324,7.73,7.73,0,0,0,.762.217q.417.1.837.217a3.581,3.581,0,0,1,.768.315,1.6,1.6,0,0,1,.56.517,1.5,1.5,0,0,1,.211.833,1.658,1.658,0,0,1-.267.91,1.851,1.851,0,0,1-.828.675A3.406,3.406,0,0,1,506.112,700.015Z" fill="#fff"/><path d="M511.161,699.941v-5.668h-2.219v-.8h5.353v.8h-2.219v5.668Z" fill="#fff"/><path d="M514,699.941l2.932-6.473h.915l2.94,6.473h-.97l-2.617-5.955h.37l-2.617,5.955Zm1.249-1.618.249-.74h3.644l.267.74Z" fill="#fff"/><path d="M521.748,699.941v-6.473h.758l4.281,5.317h-.4v-5.317h.925v6.473h-.758l-4.281-5.317h.4v5.317Z" fill="#fff"/><path d="M529.256,699.941v-6.473h2.729a3.942,3.942,0,0,1,1.826.407,3.022,3.022,0,0,1,1.229,1.137,3.475,3.475,0,0,1,0,3.385,3.015,3.015,0,0,1-1.229,1.137,3.942,3.942,0,0,1-1.826.407Zm.925-.8h1.748a2.978,2.978,0,0,0,1.392-.3,2.222,2.222,0,0,0,.91-.855,2.667,2.667,0,0,0,0-2.548,2.237,2.237,0,0,0-.91-.85,2.978,2.978,0,0,0-1.392-.3h-1.748Z" fill="#fff"/><path d="M505.714,711.038l-2.163-6.473h.952l1.988,5.973h-.481l2.063-5.973h.85l2.016,5.973h-.462l2.015-5.973h.878l-2.163,6.473h-.971l-1.886-5.54h.25l-1.9,5.54Z" fill="#fff"/><path d="M514.5,711.038v-6.473h.925v6.473Z" fill="#fff"/><path d="M518.651,711.038V705.37h-2.22v-.8h5.353v.8h-2.218v5.668Z" fill="#fff"/><path d="M523.717,711.038h-.925v-6.473h.925Zm3.8-2.885h-3.893v-.8h3.893Zm-.083-3.588h.924v6.473h-.924Z" fill="#fff"/><path d="M506.907,722.207a2.715,2.715,0,0,1-2.006-.73,2.89,2.89,0,0,1-.731-2.136v-3.68h.925V719.3a2.223,2.223,0,0,0,.477,1.581,2.074,2.074,0,0,0,2.7,0,2.232,2.232,0,0,0,.476-1.581v-3.643h.9v3.68a2.9,2.9,0,0,1-.726,2.136A2.71,2.71,0,0,1,506.907,722.207Z" fill="#fff"/><path d="M511.539,722.133v-6.472h.925v6.472Zm.815-1.562-.047-1.128,3.671-3.782h1.054l-2.838,3-.518.573Zm3.772,1.562-2.654-3.088.62-.684,3.116,3.772Z" fill="#fff"/><path d="M518.188,722.133v-6.472h2.524a3.54,3.54,0,0,1,1.451.268,2.057,2.057,0,0,1,.925.776,2.209,2.209,0,0,1,.324,1.211,2.181,2.181,0,0,1-.324,1.207,2.064,2.064,0,0,1-.925.773,3.541,3.541,0,0,1-1.451.267H518.7l.416-.424v2.394Zm.925-2.3-.416-.453h1.987a2.054,2.054,0,0,0,1.346-.383,1.491,1.491,0,0,0,0-2.15,2.065,2.065,0,0,0-1.346-.379H518.7l.416-.463Zm3.4,2.3-1.646-2.348h.99l1.664,2.348Z" fill="#fff"/><path d="M523.93,722.133l2.931-6.472h.916l2.94,6.472h-.972l-2.616-5.955h.37l-2.617,5.955Zm1.248-1.618.25-.739h3.643l.268.739Z" fill="#fff"/><path d="M531.678,722.133v-6.472h.925v6.472Z" fill="#fff"/><path d="M534.544,722.133v-6.472h.759l4.281,5.316h-.4v-5.316h.924v6.472h-.758l-4.281-5.316h.4v5.316Z" fill="#fff"/><path d="M542.978,721.329h3.772v.8h-4.7v-6.472h4.567v.8h-3.642Zm-.083-2.875h3.328v.785H542.9Z" fill="#fff"/><path d="M503,734.154l3.051-8.71h.8l-3.052,8.71Z" fill="#fff"/><path d="M505.058,744.4a2.443,2.443,0,0,1-1.072-.24,2.069,2.069,0,0,1-.814-.7l.536-.628a2.03,2.03,0,0,0,.606.569,1.429,1.429,0,0,0,.744.2q1.11,0,1.109-1.313v-3.633h-2.339v-.8h3.255v4.393a2.264,2.264,0,0,1-.513,1.618A2,2,0,0,1,505.058,744.4Z" fill="#fff"/><path d="M507.85,744.325l2.932-6.473h.915l2.94,6.473h-.971l-2.617-5.955h.37l-2.616,5.955Zm1.249-1.619.249-.739h3.643l.268.739Z" fill="#fff"/><path d="M515.6,744.325v-6.473h2.524a3.54,3.54,0,0,1,1.451.269,2.045,2.045,0,0,1,.925.776,2.207,2.207,0,0,1,.325,1.211,2.184,2.184,0,0,1-.325,1.207,2.083,2.083,0,0,1-.925.776,3.473,3.473,0,0,1-1.451.274h-2.015l.416-.435v2.4Zm.925-2.3-.416-.462h1.987a2.065,2.065,0,0,0,1.346-.379,1.485,1.485,0,0,0,0-2.145,2.065,2.065,0,0,0-1.346-.379h-1.987l.416-.463Z" fill="#fff"/><path d="M520.878,744.325l2.932-6.473h.915l2.94,6.473h-.97l-2.618-5.955h.371l-2.617,5.955Zm1.249-1.619.249-.739h3.644l.267.739Z" fill="#fff"/><path d="M528.627,744.325v-6.473h.758l4.281,5.316h-.4v-5.316h.925v6.473h-.758l-4.281-5.317h.4v5.317Z" fill="#fff"/></g></svg>